<?xml version="1.0" encoding="UTF-8"?>
<svg id="Layer_1" xmlns="http://www.w3.org/2000/svg" version="1.1" viewBox="0 0 800 800">
  <!-- Generator: Adobe Illustrator 29.5.0, SVG Export Plug-In . SVG Version: 2.1.0 Build 137)  -->
  <defs>
    <style>
      .st0 {
        fill: #cecece;
      }

      .st1 {
        fill: #565656;
      }

      .st2 {
        fill: #333;
      }

      .st3 {
        fill: #898989;
      }
    </style>
  </defs>
  <path class="st0" d="M800,400C800,179.1,620.9,0,400,0S0,179.1,0,400s179.1,400,400,400,400-179.1,400-400Z"/>
  <path class="st1" d="M700.4,479.3c-.6-26.3-18.7-47.6-40.8-47.6s-12.6,1.8-18.1,5c4.2-10.5,7.4-19.2,8.4-21.4,2.6-6.8,5-18.4,5-18.4h0q0-.2.2-.3l5-14.5c.3-1,.2-1.9-.2-2.7,0-1-.2-1.9-1.3-2.3-1-.3-1.8.3-2.4,1.1-.8.5-1.6,1.3-1.8,2.3l-4.8,13.4-.3-.2,6.9-25.6c.3-1.1.2-2.3-.3-3.2,0-1.3-.3-2.4-1.6-2.7-1.1-.3-2.1.3-2.7,1.3-1,.5-1.9,1.5-2.3,2.7l-7.3,24.2-.5-.3,7.4-29.7c.3-1.1.2-2.3-.5-3.1,0-1.1-.5-2.3-1.8-2.6-1.3-.3-2.1.5-2.7,1.6-.8.5-1.3,1.3-1.6,2.3l-8.5,29.2-.6-.2,5.6-24.8c.3-1,.2-1.9-.3-2.7,0-1.3-.3-2.6-1.8-2.9-1.3-.3-2.3.6-2.7,1.8-.6.5-1.3,1.3-1.5,2.1l-6.8,25.2-2.6,6.3c-.3-2.7-.8-6.1-1.9-9-.3-.6-2.7-5.5-5.6-3.9,0-.2-.2-.2-.3-.3,0,0-1.9-.2-.3,7.1h0c0,.8.2,1.8.2,2.7,0,4.5-.3,9,0,11.1.6,3.9.8,10.3.8,10.3,0,0,.8,11.1,1,13.4l-8.9,23.9c-6.3-4.8-13.9-7.7-22.1-7.7-19.7,0-36.3,16.8-40,39h-120.4c0-1.1.2-2.4.2-3.5,0-27.1-18.4-49-41-49s-41,21.9-41,49,0,2.4.2,3.5h-68c.2-1.9.3-3.9.3-5.8,0-8.7-1.9-16.9-5.3-24,6.4-16.3,13.1-33.1,14.3-36.4,2.6-6.8,5-18.4,5-18.4h0q0-.2.2-.3l5-14.5c.3-1,.2-1.9-.2-2.7,0-1-.2-1.9-1.3-2.3-1-.3-1.8.3-2.4,1.1-.8.5-1.6,1.3-1.8,2.3l-4.8,13.4-.5-.2,6.9-25.6c.3-1.1.2-2.3-.3-3.2,0-1.3-.3-2.4-1.6-2.7-1.1-.3-2.1.3-2.7,1.3-1,.5-1.9,1.5-2.3,2.7l-7.3,24.2-.5-.3,7.4-29.7c.3-1.1.2-2.3-.5-3.1,0-1.1-.5-2.3-1.8-2.6-1.3-.3-2.1.5-2.7,1.6-.8.5-1.3,1.3-1.6,2.3l-8.5,29.2-.6-.2,5.6-24.8c.3-1,.2-1.9-.3-2.7,0-1.3-.3-2.6-1.8-2.9-1.3-.3-2.3.6-2.7,1.8-.6.5-1.3,1.3-1.5,2.1l-6.8,25.2-2.6,6.3c-.3-2.7-.8-6.1-1.9-9-.3-.6-2.7-5.5-5.6-3.9,0-.2-.2-.2-.3-.3,0,0-1.9-.2-.3,7.3h0c0,.8.2,1.8.2,2.7,0,4.5-.3,9,0,11.1.6,3.9.8,10.3.8,10.3,0,0,.8,11.1,1,13.4l-2.3,6c-4.5-2.1-9.5-3.2-14.8-3.2-22.6,0-41,21.9-41,49s.2,3.9.3,5.8H48.7l22.9-71.9c1.8-2.3,11.3-12.7,11.3-12.7,0,0,5.2-6.3,8.9-9.7,1.9-1.8,5.2-6.6,8.7-11.1.8-1,1.5-1.8,2.3-2.7h0c7.3-6.1,5.2-7.6,5.2-7.6-.2,0-.3.2-.5.2-1.8-3.9-7.9-.8-8.7-.5-3.4,1.9-6.6,5-9,7.6l1.6-5.3c.2-.2.2-.3.3-.5l15.3-31.9c.5-1.1.6-2.3.3-3.4.5-1.6.3-3.2-1.1-4-1.6-.8-3.1,0-4.2,1.3-1,.5-1.9,1.3-2.6,2.4l-14.8,29.2-.8-.3,12.4-37.2c.5-1.1.3-2.4-.2-3.5.2-1.5-.2-2.9-1.6-3.5s-2.7.2-3.7,1.5c-1.1.5-2.3,1.5-2.7,2.9l-13.5,36s-.2,0-.2-.2c-.6-.3-.5-5.8-3.5-6.1-3.2-.5-6.1.2-6.9,1.1-1.6,1.9-2.9.8-4.7,1-1.6,0-3.4-.2-5,2.1-1,1.3-1,4.4-1.3,4.7-3.2,4.7-5.8,11.1-7.4,16.8-2.1,6.9-23.2,75.8-31.6,106.4h-5.6c9.8,49,28.7,94.8,54.7,135.6h674.7c20.5-32.1,36.6-67.4,47.2-104.8l-84.3-31.1Z"/>
  <path class="st3" d="M579,463.7c-2.1-24.7-19.5-43.9-40.6-43.9s-30.3,11.3-36.9,27.7l-38.4-44.5c-1.1-3.5-6.1-21.1-6.1-21.1,0,0-3.4-10-4.5-16.3-.6-3.4-3.7-10.2-6.3-17.1-.5-1.5-1-2.9-1.5-4.2h0c-1.9-12.1-4.7-10.8-4.7-10.8,0,.2-.2.5-.2.6-5.3-.8-6.3,8.1-6.4,9.2-.2,5,1,10.6,2.1,15l-7.4-8.2-24.7-35c-1-1.3-2.1-2.1-3.5-2.6-1.6-1.6-3.5-2.4-5.3-1.3-1.9,1.3-1.9,3.4-1,5.5-.2,1.5.2,3.1,1.1,4.4l22.9,35-1,.6-29.8-40c-1-1.3-2.3-2.3-3.7-2.4-1.5-1.3-3.2-1.9-5-.8s-1.9,3.1-1.3,4.8c-.3,1.6,0,3.4,1,5l28.4,41.4-.6.6-25-33.1c-1.3-1.8-3.2-2.7-5-2.9-1.6-1.1-3.4-1.6-5-.5-1.8,1.3-1.6,3.2-.8,5.2-.3,1.6.2,3.5,1.3,5.2l25.2,35.5-.5.5-15-17.9c-1.1-1.5-2.6-2.3-4.2-2.4-1.3-1-2.9-1.5-4.2-.3-1.5,1.1-1.3,2.7-.5,4.4-.2,1.5.3,3.1,1.3,4.4l16,19.7c.2.2.2.3.3.5h0s10.5,16.6,18.2,25.5c4.4,5,28.1,31.8,49.5,55.1l-78.4,32.2-62.2-32.2c1.5-5.2,2.3-10.6,2.3-16.3,0-27.1-18.4-49-41-49s-41,21.9-41,49,.8,11.1,2.3,16.3l-226.4,28.7v7.7c14.5,56.1,41,107.4,76.3,151.1h621.8c33.1-40.8,58.4-88.4,73.4-140.1l-205.2-47.9Z"/>
  <path class="st2" d="M400,800c184.6,0,339.9-124.9,386-295h-2.3c-.5-38.4-26.6-69.3-58.8-69.3h0c3.2-22.4,6-41.9,6.4-46.6,1.6-12.1,1-32.1,1-32.1h0v-.5l2.4-26c.2-1.8-.5-3.4-1.5-4.5-.3-1.8-1.1-3.2-2.9-3.4-1.8-.2-2.9,1.1-3.4,2.7-1.1,1-2.1,2.6-2.1,4.5l-2.6,23.9-.8-.2,1.3-44.7c.2-2.1-.6-3.9-1.8-5.2-.5-2.1-1.5-3.7-3.7-3.9-2.1-.2-3.2,1.3-3.9,3.2-1.6,1.1-2.6,3.1-2.7,5.3l-2.4,42.6-1-.2.6-51.6c0-1.9-.6-3.7-1.9-4.8-.6-1.9-1.8-3.5-3.9-3.4-2.1,0-3.2,1.6-3.7,3.5-1.1,1.1-1.8,2.6-1.8,4.4l-2.6,51.3h-1.1l-.5-42.9c0-1.8-.5-3.2-1.5-4.4-.5-2.3-1.6-4.2-4-4-2.3,0-3.4,1.9-3.9,4.2-1,1.1-1.5,2.6-1.6,4.2l-1.1,44-1.6,11.3c-1.5-4.4-3.7-9.8-6.8-14-.6-1-7.1-8.7-11.3-3.5-1.5,1.9,1.9,8.1,3.5,15.3,1.8,7.6,2.9,15,4.4,18.2,2.7,6,5.5,16.6,5.5,16.6,0,0,5.8,17.9,6.8,21.6l-6.8,54.7c-4.8,10-7.6,21.6-7.9,33.9h-4.7c-11.1-27.6-34.8-46.6-62.2-46.6s-50.9,18.7-62.2,46.3h-28.1l18.2-58.7c3.4-4,21.3-23.7,21.3-23.7,0,0,9.7-11.9,16.6-18.1,3.7-3.4,9.7-12.3,16.1-20.8,6.3-8.2,14.2-14.2,13.4-17.6-2.4-9-15.2-2.7-16.6-1.9-6.3,3.5-12.4,9.4-16.8,14.2l2.9-9.8c.2-.3.5-.6.6-1.1l28.7-59.5c1-2.1,1.1-4.2.8-6.1.8-3.1.6-6.1-2.3-7.7s-5.6,0-7.7,2.6c-1.9.8-3.7,2.4-4.7,4.5l-28.4,53.8-1.6-.6,23.1-69.6c.8-2.3.6-4.5-.2-6.6.3-2.9-.3-5.5-3.1-6.6-2.7-1.1-5,.3-6.8,2.6-2.3,1-4.2,2.7-5,5.3l-25.2,67.2c-.2,0-.2-.2-.3-.2-1.3-.5-1-10.8-6.6-11.6-6-.8-11.4.2-12.9,2.1-3.1,3.7-5.3,1.6-8.7,1.8-3.1.2-6.3-.3-9.2,3.9-1.8,2.4-1.9,8.1-2.4,8.7-6,8.7-10.8,21-13.9,31.3-2.3,7.6-13.1,43.9-23.7,81.4-7.6-3.4-15.6-5.2-24-5.2-25.3,0-47.6,16.3-59.5,40.6l-9-29.8c.5-4.2,3.4-25.2,3.4-25.2,0,0,1-12.1,2.9-19.3,1-3.9,1-12.4,1.5-21,.5-8.2,3.1-15.8,1-17.4-5.5-4.8-11.1,4.8-11.8,6.1-2.6,5.2-4,11.8-4.8,16.8l-2.6-7.7v-1l-7.6-52.1c-.3-1.8-1.1-3.4-2.3-4.4-.8-2.4-2.3-4.4-4.8-4-2.7.3-3.7,2.6-3.9,5.2-1,1.5-1.3,3.2-1.1,5l5.3,48h0l-1.3.3s-2.3-6.1-8.7-4.5-4.8,4.5-7.3,4.8c-2.3.3-4.8-4.2-8.9-2.1-4.4,2.1-7.4,5.2-7.6,7.1-.5,3.9-2.9,3.4-5,5-1.9,1.5-4.4,2.6-4.4,6.6s2.3,6.1,2.3,6.8c0,8.4,2.3,18.5,4.7,26.8,1.6,5.5,9.4,29.7,17.9,56.1h-16.3c-11.3-9.4-24.8-15-39.5-15s-28.4,5.5-39.5,15h-38.4c18.4-45.9,36.4-92.5,40-101.9,7.3-19.2,14.2-52.6,14.2-52.6h-.2c.2-.3.2-.6.3-.8l14.2-41.6c.8-2.9.6-5.6-.5-7.9.2-2.9-.5-5.6-3.5-6.6-2.7-1-5.2.8-6.6,3.1-2.4,1.1-4.4,3.5-5.3,6.6l-13.7,38.4-1.1-.5,19.7-73.2c1-3.2.5-6.6-1-9.2.2-3.5-1-6.8-4.5-7.7-3.2-1-6,.8-7.7,3.7-3.1,1.3-5.5,4-6.4,7.7l-20.6,69.2-1.5-.6,21.3-84.8c.8-3.2.3-6.3-1.3-8.9-.2-3.4-1.5-6.3-5-7.1-3.5-.8-6,1.5-7.6,4.5-2.3,1.3-3.9,3.5-4.7,6.3l-24.3,83.4-1.9-.5,16.1-70.8c.6-2.7.3-5.5-.8-7.7,0-3.9-1.1-7.4-5-8.4-3.7-.8-6.4,1.8-8.1,5.3-1.9,1.5-3.5,3.5-4.2,6.3l-19.2,72.1-7.1,18.1c-.8-7.7-2.3-17.7-5.6-25.8-.8-1.8-7.6-15.6-16-11.1-.2-.3-.5-.6-.6-1,0,0-5.3-.3-1,20.5h0c.2,2.6.3,5.2.3,7.7-.2,13.1-1,25.8.2,31.8,2.1,11,2.4,29.3,2.4,29.3,0,0,2.1,28.2,2.6,36.9-8.9-4.8-18.7-7.7-29-7.7s-16.1,4.8-26.3,12.3c-5.3-1.5-11-2.3-16.8-2.3-22.9,0-43,12.1-54.7,30.3,28.1,191.9,194.3,339.7,395,339.7Z"/>
</svg>